<?xml version="1.0" encoding="UTF-8" standalone="no"?>
<!-- Created with Inkscape (http://www.inkscape.org/) -->

<svg
   xmlns:dc="http://purl.org/dc/elements/1.1/"
   xmlns:cc="http://creativecommons.org/ns#"
   xmlns:rdf="http://www.w3.org/1999/02/22-rdf-syntax-ns#"
   xmlns:svg="http://www.w3.org/2000/svg"
   xmlns="http://www.w3.org/2000/svg"
   xmlns:sodipodi="http://sodipodi.sourceforge.net/DTD/sodipodi-0.dtd"
   xmlns:inkscape="http://www.inkscape.org/namespaces/inkscape"
   width="744.09448819"
   height="1052.3622047"
   id="svg2"
   version="1.1"
   inkscape:version="0.48.5 r10040"
   sodipodi:docname="buchla_portamento.dxf">
  <defs
     id="defs4" />
  <sodipodi:namedview
     id="base"
     pagecolor="#ffffff"
     bordercolor="#666666"
     borderopacity="1.0"
     inkscape:pageopacity="0.0"
     inkscape:pageshadow="2"
     inkscape:zoom="1.4"
     inkscape:cx="352.78987"
     inkscape:cy="634.28571"
     inkscape:document-units="px"
     inkscape:current-layer="layer1"
     showgrid="false"
     inkscape:window-width="1571"
     inkscape:window-height="897"
     inkscape:window-x="20"
     inkscape:window-y="20"
     inkscape:window-maximized="0" />
  <metadata
     id="metadata7">
    <rdf:RDF>
      <cc:Work
         rdf:about="">
        <dc:format>image/svg+xml</dc:format>
        <dc:type
           rdf:resource="http://purl.org/dc/dcmitype/StillImage" />
        <dc:title></dc:title>
      </cc:Work>
    </rdf:RDF>
  </metadata>
  <g
     inkscape:label="Layer 1"
     inkscape:groupmode="layer"
     id="layer1">
    <path
       style="fill:#000000"
       d="m 353.84336,566.14789 c 2.10962,-1.20597 15.26121,-1.43466 84.22255,-1.46456 l 81.72255,-0.0354 0.27745,-66.25 c 0.25639,-61.22054 0.4103,-66.4377 2.02745,-68.72251 0.9625,-1.35987 1.75,-3.62225 1.75,-5.02749 0,-1.40524 -0.7875,-3.66762 -1.75,-5.02749 -1.31479,-1.85762 -1.75,-4.46204 -1.75,-10.47251 0,-6.01047 0.43521,-8.61489 1.75,-10.47251 1.80181,-2.5457 2.28051,-6.71945 0.98469,-8.58545 -3.21048,-4.62316 -10.87801,-5.81464 -14.23443,-2.21194 -3.17625,3.4093 -3.44604,6.20443 -1.01617,10.52781 1.8706,3.32828 2.11854,5.04299 1.7792,12.30464 -0.21687,4.6406 -1.03473,9.92314 -1.81749,11.73899 -1.27022,2.94669 -1.23631,3.62716 0.31551,6.33104 1.59941,2.78681 1.73869,7.90959 1.73869,63.94846 l 0,60.91896 -46.5,0 -46.5,0 0,-5 0,-5 41.40606,0 41.40606,0 0.11147,-181 0.11146,-181 -87.26753,-0.0318 c -75.1486,-0.0274 -87.53709,-0.2357 -89.20865,-1.5 -4.19716,-3.17458 -10.24669,-1.0503 -12.49984,4.38928 -2.01686,4.86913 2.29548,11.14252 7.65939,11.14252 2.35623,0 12.28158,9.97837 12.28158,12.34719 0,2.87371 1.84656,5.5221 4.97998,7.14246 4.16067,2.15156 5.78489,1.89932 9.09694,-1.41273 5.16119,-5.16118 3.2241,-12.11096 -3.91116,-14.03229 -2.06856,-0.557 -5.06128,-2.36991 -6.65048,-4.02868 l -2.88946,-3.01595 79.30945,0 79.30946,0 -0.37237,144.49977 -0.37236,144.49976 -2.78138,2.4e-4 c -1.58416,1.3e-4 -3.03619,-0.66377 -3.37334,-1.54237 -0.69225,-1.80397 -7.45788,-5.46482 -10.05544,-5.44095 -0.98441,0.009 -3.54873,1.02155 -5.69849,2.25 -10.57822,6.04479 -6.11574,21.73355 6.18184,21.73355 3.30422,0 4.80239,-0.67714 7.84317,-3.54497 2.31205,-2.18054 4.55258,-3.43144 5.8212,-3.25 2.00659,0.28698 2.06244,0.85012 2.06244,20.79497 l 0,20.5 -41.5,0.5 -41.5,0.5 -0.28621,9.75 -0.28621,9.75 -4.96379,0 -4.96379,0 0,-31 c 0,-29.78947 0.0742,-31 1.9,-31 1.045,0 3.475,1.575 5.4,3.5 2.72134,2.72134 4.31195,3.5 7.14966,3.5 7.49,0 12.55034,-4.86458 12.55034,-12.06482 0,-3.35512 -0.63026,-4.76544 -3.34106,-7.47624 -1.83758,-1.83758 -4.56544,-3.64835 -6.06192,-4.02395 -3.24648,-0.81481 -10.23544,2.02088 -11.69296,4.74428 -0.53784,1.00496 -2.07878,1.82073 -3.43924,1.82073 l -2.46482,0 0,-36 0,-36 3,0 c 1.65,0 3,0.45 3,1 0,0.60028 4.01402,1 10.04206,1 l 10.04207,0 -0.29207,-7.75 -0.29206,-7.75 -8.64123,-0.28735 c -6.72515,-0.22363 -8.9821,0.0535 -10.17857,1.25 -1.1124,1.1124 -3.6302,1.53735 -9.10877,1.53735 l -7.57143,0 0,77.5 0,77.5 -15.03518,0 c -12.14522,0 -15.50811,-0.30987 -17.49559,-1.61212 -2.59359,-1.69938 -9.46923,-1.22202 -9.46923,0.65743 0,0.56454 -6.02785,0.94169 -14.75,0.92289 -11.38297,-0.0246 -15.19311,-0.36696 -16.69113,-1.5 -1.06762,-0.80751 -3.11911,-1.4682 -4.55887,-1.4682 -1.43976,0 -3.49125,0.66069 -4.55887,1.4682 -1.49802,1.13304 -5.30816,1.47545 -16.69113,1.5 l -14.75,0.0318 0,-56.5 0,-56.5 -72,0 -72,0 0,-15.5 0,-15.5 4.25,0.0318 c 2.3375,0.0175 5.12351,0.6925 6.19113,1.5 3.15199,2.38405 7.37446,1.80645 10.63579,-1.45488 3.42461,-3.4246 3.7246,-6.78823 0.92308,-10.34979 -1.99423,-2.53525 -2.54415,-6.14553 -1.39301,-9.14534 0.49689,-1.29489 2.40136,-1.58179 10.5,-1.58179 l 9.89301,0 0,-82.5 0,-82.5 51.47395,0 51.47396,0 0.27604,15.25 0.27605,15.25 29.67776,-0.3794 c 29.05443,-0.37144 29.73462,-0.33468 32.38486,1.75 3.18387,2.50443 5.49367,2.66877 9.36586,0.66639 3.12028,-1.61356 4.07152,-3.34158 4.07152,-7.39627 0,-6.20566 -7.28395,-10.15036 -12.46923,-6.75284 -2.09756,1.37438 -6.15238,1.61212 -27.49559,1.61212 l -25.03518,0 0,-14.88337 c 0,-14.58928 -0.0445,-14.89528 -2.25,-15.48634 -1.2375,-0.33164 -29.1349,-0.60913 -61.99422,-0.61664 l -59.74422,-0.0137 -0.25578,82.75 -0.25578,82.75 -3.1764,0.30787 c -1.82491,0.17688 -4.95888,-0.60148 -7.36573,-1.82936 -4.64709,-2.37077 -7.36409,-2.112 -10.72777,1.02175 -2.64983,2.46869 -2.96301,7.50835 -0.67002,10.78205 0.93036,1.32827 1.43491,3.73906 1.25,5.97251 l -0.31008,3.74518 -10,0.5 -10,0.5 -0.26688,25.75 -0.26688,25.75 72.51688,0 72.51688,0 0,57 0,57 19.75,0.0318 c 15.78043,0.0254 20.14015,0.3269 21.69113,1.5 1.06762,0.80751 3.11911,1.4682 4.55887,1.4682 1.43976,0 3.49125,-0.66069 4.55887,-1.4682 1.49212,-1.12858 5.17955,-1.46819 15.94113,-1.46819 10.76158,0 14.44901,0.33961 15.94113,1.46819 2.4328,1.84008 6.30691,1.82719 9.55887,-0.0318 z m -7.39282,-5.80857 c -0.88076,-1.43872 -0.72943,-2.08929 0.74002,-3.18132 2.22541,-1.65381 4.28097,-1.03999 4.93859,1.47474 1.00934,3.85972 -3.52606,5.22274 -5.67861,1.70658 z m -41.4557,-0.12533 c -0.4878,-2.5568 2.67409,-4.95576 4.51648,-3.42671 1.43311,1.18938 1.77738,4.08194 0.62319,5.23613 -1.33516,1.33516 -4.77047,0.12576 -5.13967,-1.80942 z M 470.45035,489.0661 c -1.07444,-2.79995 -0.65517,-4.32206 1.50967,-5.48065 2.93602,-1.57131 5.39678,0.88062 4.49394,4.4778 -0.46972,1.87152 -1.3037,2.58464 -3.02266,2.58464 -1.30568,0 -2.64711,-0.7118 -2.98095,-1.58179 z m -62.21759,-1.00285 c -0.8628,-3.43768 1.8375,-6.39194 4.37936,-4.79123 2.20478,1.38845 2.74132,4.05633 1.19137,5.92391 -1.94838,2.34765 -4.84504,1.75868 -5.57073,-1.13268 z m 104.1106,-62.80637 c 0,-2.96702 3.10339,-4.43418 5.11798,-2.41958 2.39307,2.39307 1.05192,5.02028 -2.36229,4.62756 -1.92434,-0.22134 -2.75569,-0.88746 -2.75569,-2.20798 z M 410.42515,407.0409 c -1.94609,-0.74678 -2.06443,-3.74756 -0.20854,-5.28782 1.96169,-1.62806 4.62675,-0.28299 4.62675,2.33513 0,3.36733 -1.21744,4.18094 -4.41821,2.95269 z m -269,0 c -1.99548,-0.76573 -2.04808,-3.76113 -0.0945,-5.38244 2.09511,-1.7388 4.51273,-0.51123 4.51273,2.29138 0,3.50804 -1.18008,4.33365 -4.41821,3.09106 z m 370.91821,-13.39301 c 0,-1.83273 0.60174,-2.58545 2.25447,-2.82014 2.45711,-0.34891 3.85266,1.79561 2.85699,4.39028 -0.3614,0.9418 -1.50471,1.44202 -2.85699,1.25 -1.65273,-0.23469 -2.25447,-0.98741 -2.25447,-2.82014 z m -372,-10 c 0,-1.83273 0.60174,-2.58545 2.25447,-2.82014 1.35228,-0.19202 2.49559,0.3082 2.85699,1.25 0.99567,2.59467 -0.39988,4.73919 -2.85699,4.39028 -1.65273,-0.23469 -2.25447,-0.98741 -2.25447,-2.82014 z M 336.91729,250.78603 c -1.3116,-2.45074 0.93617,-5.73198 3.30414,-4.8233 2.30536,0.88465 3.09012,3.4161 1.61136,5.19789 -1.67993,2.0242 -3.71469,1.86914 -4.9155,-0.37459 z m 0.17287,-41.29134 c -1.6113,-1.6113 0.27104,-4.8468 2.81977,-4.8468 2.21069,0 3.45987,2.18574 2.5718,4.5 -0.68241,1.77833 -3.76195,1.97642 -5.39157,0.3468 z m -20.08429,-19.7252 c -0.73562,-0.46628 -1.18562,-1.92189 -1,-3.23469 0.253,-1.78937 0.96334,-2.38691 2.83749,-2.38691 1.87415,0 2.58449,0.59754 2.83749,2.38691 0.28856,2.0408 -1.13049,4.08246 -2.83749,4.08246 -0.275,0 -1.10187,-0.3815 -1.83749,-0.84777 z m -68.73394,360.30697 c 3.20064,-3.20064 1.07403,-8.42857 -3.42857,-8.42857 -2.93684,0 -5,2.21287 -5,5.36283 0,2.07124 2.7667,4.63717 5,4.63717 1.02143,0 2.56429,-0.70714 3.42857,-1.57143 z M 243.03,546.39789 c 0.20084,-2.08295 0.852,-3.25 1.81336,-3.25 0.96136,0 1.61252,1.16705 1.81336,3.25 0.26477,2.74611 -0.0164,3.25 -1.81336,3.25 -1.79698,0 -2.07813,-0.50389 -1.81336,-3.25 z m -5.18664,4.32332 c 0,-0.59032 -0.45,-1.07332 -1,-1.07332 -1.45455,0 -1.2282,-5.74074 0.25,-6.34054 0.88957,-0.36095 0.9328,-0.74541 0.14994,-1.33333 -0.60503,-0.45437 -1.31713,-1.49993 -1.58244,-2.32347 -0.38518,-1.19561 -0.69206,-1.09485 -1.52289,0.5 -1.56342,3.00113 -0.19862,10.89344 1.95539,11.30755 0.9625,0.18504 1.75,-0.14656 1.75,-0.73689 z m -7.42248,-0.41474 c 0.30987,-0.8075 0.41919,-2.97353 0.24294,-4.81338 -0.29793,-3.11006 -0.58405,-3.35575 -4.07046,-3.49531 -3.80828,-0.15244 -3.97222,0.0395 -3.97222,4.65011 0,4.01054 0.24187,5 1.22222,5 0.55,0 1,-1.8 1,-4 0,-2.88889 0.41667,-4 1.5,-4 1.04272,0 1.5,1.049 1.5,3.44098 0,3.6478 1.63109,5.68395 2.57752,3.2176 z m -11.07752,0.34142 c 0.36058,-0.58342 -0.65628,-1 -2.44098,-1 -2.05246,0 -3.05902,-0.49357 -3.05902,-1.5 0,-1.04496 1.05198,-1.5 3.46778,-1.5 3.17418,0 3.39787,-0.19049 2.64212,-2.25 -1.73189,-4.71964 -9.1099,-2.80044 -9.1099,2.3697 0,3.6919 6.72038,6.75979 8.5,3.8803 z m -5.25,-6.25 c 0.22917,-0.6875 1.01667,-1.25 1.75,-1.25 0.73333,0 1.52083,0.5625 1.75,1.25 0.24786,0.74359 -0.46111,1.25 -1.75,1.25 -1.28889,0 -1.99786,-0.50641 -1.75,-1.25 z m -5.441,2.603 -0.309,-4.853 -6.801,-0.15725 -6.80101,-0.15724 0.30101,4.65724 c 0.34857,5.39327 2.15439,5.86222 2.61137,0.67814 0.45601,-5.17322 3.18963,-4.76261 3.18963,0.47911 0,5.01814 1.77086,5.28284 2.18963,0.3273 0.4221,-4.99482 2.59288,-5.51397 2.99631,-0.71658 0.17273,2.05407 0.90311,3.92832 1.62306,4.16498 0.98448,0.32362 1.23239,-0.77283 1,-4.4227 z M 192.64,546.69838 c -0.28856,-4.42656 -0.39196,-4.55675 -3.79664,-4.78043 -3.34501,-0.21976 -3.38929,-0.18056 -1,0.88526 l 2.5,1.1152 -2.40536,0.63749 c -5.96789,1.58164 -4.78473,6.97029 1.49138,6.79239 l 3.50727,-0.0994 -0.29665,-4.55049 z m -5.79664,1.44951 c 0,-0.825 0.675,-1.5 1.5,-1.5 0.825,0 1.5,0.675 1.5,1.5 0,0.825 -0.675,1.5 -1.5,1.5 -0.825,0 -1.5,-0.675 -1.5,-1.5 z m -4.53422,2.55537 c 0.35874,-0.58045 -0.0493,-1.05537 -0.90676,-1.05537 -1.9144,0 -2.18629,-5.57881 -0.30902,-6.34054 0.88957,-0.36095 0.9328,-0.74541 0.14994,-1.33333 -0.60503,-0.45437 -1.31713,-1.49993 -1.58244,-2.32347 -1.0104,-3.13627 -2.56746,2.46804 -1.94045,6.98423 0.61226,4.4099 3.04479,6.56663 4.58873,4.06848 z m -11.13245,0.27796 c 0.36667,-0.36666 0.66667,-2.19699 0.66667,-4.06738 0,-2.94565 0.26763,-3.31578 2,-2.76595 1.41932,0.45047 2,0.1797 2,-0.93261 0,-1.12464 -0.98868,-1.56739 -3.5,-1.56739 l -3.5,0 0,5 c 0,4.64673 0.70698,5.95969 2.33333,4.33333 z m -5.90476,-0.90476 c 3.20064,-3.20064 1.07403,-8.42857 -3.42857,-8.42857 -2.93684,0 -5,2.21287 -5,5.36283 0,2.07124 2.7667,4.63717 5,4.63717 1.02143,0 2.56429,-0.70714 3.42857,-1.57143 z M 160.03,546.39789 c 0.20084,-2.08295 0.852,-3.25 1.81336,-3.25 0.96136,0 1.61252,1.16705 1.81336,3.25 0.26477,2.74611 -0.0164,3.25 -1.81336,3.25 -1.79698,0 -2.07813,-0.50389 -1.81336,-3.25 z m -10.00878,2.59883 c 0.23239,-1.99808 1.01718,-2.93227 2.81689,-3.35313 4.9344,-1.1539 3.21759,-6.9957 -2.05592,-6.9957 -2.56,0 -2.87609,0.39882 -3.47349,4.38258 -0.36147,2.41043 -0.50154,5.18564 -0.31128,6.16714 0.57067,2.94382 2.6743,2.80407 3.0238,-0.20089 z m -0.17786,-6.34883 c 0,-1.11111 0.66667,-2 1.5,-2 0.83333,0 1.5,0.88889 1.5,2 0,1.11111 -0.66667,2 -1.5,2 -0.83333,0 -1.5,-0.88889 -1.5,-2 z m -10.53874,3.8185 c 0.84631,-2.84983 1.53874,-5.80138 1.53874,-6.55902 0,-2.3745 -1.81491,-0.37867 -2.50252,2.75199 -0.84822,3.86193 -1.97668,3.79565 -3.11778,-0.18312 -1.25045,-4.36007 -3.9123,-5.24134 -3.06712,-1.01544 0.91728,4.58638 3.445,10.18709 4.59765,10.18709 0.55676,0 1.70472,-2.33168 2.55103,-5.1815 z m -8.96126,4.1815 c 0.35006,-0.56641 -0.48327,-1 -1.92193,-1 -1.85517,0 -2.70425,-0.65456 -3.14931,-2.42783 -0.87022,-3.46724 0.37636,-6.57217 2.63863,-6.57217 1.06293,0 1.93261,-0.45 1.93261,-1 0,-0.55 -1.09948,-1 -2.4433,-1 -2.79974,0 -5.5567,3.33537 -5.5567,6.72251 0,4.23241 6.60961,8.3362 8.5,5.27749 z m 67.73652,-17.25 c 1.16026,-0.89594 1.56845,-2.66622 1.44113,-6.25 -0.17137,-4.82325 -0.28802,-5.01074 -3.3,-5.30384 -3.42881,-0.33366 -5.25745,2.03882 -3.34634,4.34156 0.74114,0.89303 0.7464,1.48163 0.0172,1.93227 -1.72347,1.06516 -1.18838,4.38481 0.8857,5.49483 2.41154,1.29062 2.34862,1.29376 4.30226,-0.21482 z m -3.73652,-2.81964 c 0,-0.77163 0.7875,-1.55463 1.75,-1.73999 1.72374,-0.33196 2.43634,1.78995 1.0625,3.1638 -1.04821,1.0482 -2.8125,0.15505 -2.8125,-1.42381 z m 0.5,-5.37134 c 0,-0.79254 0.41891,-1.69988 0.9309,-2.01631 1.18889,-0.73478 2.38461,1.13777 1.5691,2.45729 -0.91956,1.48787 -2.5,1.20909 -2.5,-0.44098 z m -7,2.44098 c 0,-6.13821 -0.38064,-6.761 -3,-4.90856 -1.12881,0.79831 -1.19068,1.18633 -0.25,1.56802 0.73476,0.29814 1.25,2.32771 1.25,4.92387 0,2.42917 0.45,4.41667 1,4.41667 0.55556,0 1,-2.66667 1,-6 z m -9.86796,5.26781 -3.36796,-0.41212 2.70165,-2.81992 c 3.32193,-3.46735 3.17866,-7.37363 -0.28846,-7.86485 -3.04898,-0.43198 -5.47239,0.54256 -4.65162,1.87058 0.45232,0.73187 1.03668,0.73669 1.90539,0.0157 0.68914,-0.57193 1.54907,-0.74378 1.91097,-0.38189 1.35956,1.35956 0.57476,4.05423 -1.84201,6.32466 -3.54848,3.33362 -3.14528,4.02174 2.25,3.83996 3.85461,-0.12987 4.11513,-0.23772 1.38204,-0.57215 z m 176.14083,-8.26781 c 2.11915,-1.66693 4.05678,-2 11.63486,-2 l 9.09227,0 -0.0194,-3.75 c -0.0107,-2.0625 0.27086,-34.4625 0.62563,-72 l 0.64505,-68.25 -8.12564,0 c -6.55612,0 -8.12563,-0.28973 -8.12563,-1.5 0,-1.23225 -1.76589,-1.5 -9.89301,-1.5 -7.8713,0 -10.01064,0.30654 -10.46862,1.5 -0.91695,2.38953 -12.69975,2.0428 -16.8642,-0.49626 -4.43786,-2.70576 -6.41004,-2.52171 -9.85109,0.91934 -3.72963,3.72963 -3.90911,8.1818 -0.46853,11.62237 2.82905,2.82906 8.05439,3.2932 11.10432,0.98635 2.78589,-2.10715 16.44112,-2.13356 16.44112,-0.0318 0,1.23333 1.77778,1.5 10,1.5 8.41068,0 10,-0.24895 10,-1.56642 0,-1.11887 0.78573,-1.47602 2.75,-1.25 1.5125,0.17403 2.6375,0.65392 2.5,1.06642 -0.1375,0.4125 -0.25,28.2 -0.25,61.75 l 0,61 -3.88569,0 c -2.13713,0 -5.17463,-0.67223 -6.75,-1.49384 -3.64227,-1.89957 -7.44269,-1.91411 -9.92318,-0.038 -1.49212,1.12858 -5.17955,1.46819 -15.94113,1.46819 -10.76158,0 -14.44901,-0.33961 -15.94113,-1.46819 -6.17636,-4.67157 -15.46676,2.51153 -12.5029,9.66692 2.32909,5.62292 10.45748,7.56592 13.96599,3.33842 0.9642,-1.16178 4.00031,-1.47215 14.35048,-1.46695 11.41841,0.006 13.51815,0.26526 16.12756,1.99341 3.81017,2.52338 6.56492,2.52338 9.77287,0 z m -7.7784,-5.00895 c -1.04214,-1.68622 0.52909,-4.99105 2.37292,-4.99105 2.4549,0 3.9871,1.84042 3.40031,4.08433 -0.53588,2.0492 -4.66622,2.6979 -5.77323,0.90672 z m -40.99447,-1.99105 c 0,-1.83273 0.60174,-2.58545 2.25447,-2.82014 1.35228,-0.19202 2.49559,0.3082 2.85699,1.25 0.99567,2.59467 -0.39988,4.73919 -2.85699,4.39028 -1.65273,-0.23469 -2.25447,-0.98741 -2.25447,-2.82014 z m 42,-134 c 0,-1.83273 0.60174,-2.58545 2.25447,-2.82014 1.35228,-0.19202 2.49559,0.3082 2.85699,1.25 0.99567,2.59467 -0.39988,4.73919 -2.85699,4.39028 -1.65273,-0.23469 -2.25447,-0.98741 -2.25447,-2.82014 z m -32,0 c 0,-1.83273 0.60174,-2.58545 2.25447,-2.82014 1.35228,-0.19202 2.49559,0.3082 2.85699,1.25 0.99567,2.59467 -0.39988,4.73919 -2.85699,4.39028 -1.65273,-0.23469 -2.25447,-0.98741 -2.25447,-2.82014 z m -101.5,128.56739 c 0,-3.5393 -0.399,-4.55925 -1.97982,-5.06099 -1.0889,-0.3456 -2.7764,-0.16461 -3.75,0.40221 -1.60382,0.93372 -1.56428,1.03343 0.4208,1.06098 3.28735,0.0456 3.75627,1.84678 0.57597,2.21235 -2.17802,0.25036 -2.8343,0.90338 -3.08337,3.06806 -0.29928,2.60103 -0.0961,2.75 3.75,2.75 l 4.06642,0 0,-4.43261 z m -5.55385,2.34548 c -1.03052,-1.66742 1.28721,-3.57951 2.66672,-2.2 1.15392,1.15392 0.43172,3.28713 -1.11287,3.28713 -0.48508,0 -1.18431,-0.48921 -1.55385,-1.08713 z m -4.44615,-3.91287 c 0,-4.66667 -0.33333,-6 -1.5,-6 -1.16667,0 -1.5,1.33333 -1.5,6 0,4.66667 0.33333,6 1.5,6 1.16667,0 1.5,-1.33333 1.5,-6 z m -6.19521,1.25 c -0.27294,-4.25366 -0.5399,-4.72511 -2.55479,-4.51179 -1.43212,0.15162 -2.25,-0.30276 -2.25,-1.25 0,-0.81852 -0.675,-1.48821 -1.5,-1.48821 -1.16667,0 -1.5,1.33333 -1.5,6 0,4.36558 0.36715,6 1.34782,6 0.81062,0 1.38167,-1.19039 1.43274,-2.98666 0.17172,-6.03967 3.21944,-6.46977 3.21944,-0.45432 0,1.89254 0.47466,3.44098 1.05479,3.44098 0.63446,0 0.93333,-1.89287 0.75,-4.75 z m -10.22146,4 c -0.70973,-0.70973 -1.07961,-0.82374 -3.64975,-1.125 -0.58653,-0.0688 -0.92403,-1.3447 -0.75,-2.83545 0.2235,-1.91454 1.05054,-2.90189 2.81642,-3.36236 2.14932,-0.56045 2.25344,-0.75676 0.74228,-1.39949 -2.48297,-1.05607 -6.74228,1.97331 -6.74228,4.79535 0,3.09382 1.8166,4.67695 5.36667,4.67695 1.63166,0 2.62916,-0.3375 2.21666,-0.75 z m -9.58333,-3.6925 c 0,-3.38444 -0.38609,-4.5575 -1.5,-4.5575 -1.04762,0 -1.5,1.05556 -1.5,3.5 0,2.44444 -0.45238,3.5 -1.5,3.5 -1.04762,0 -1.5,-1.05556 -1.5,-3.5 0,-2.50187 -0.44417,-3.5 -1.5575,-3.5 -1.21392,0 -1.48966,0.93754 -1.25,4.25 0.30601,4.22934 0.32816,4.25149 4.5575,4.5575 l 4.25,0.3075 0,-4.5575 z m -11.59696,3.59939 c 0.28659,-0.46371 0.39522,-3.05121 0.2414,-5.75 -0.27772,-4.87266 -0.30536,-4.90906 -3.96206,-5.21726 l -3.68238,-0.31036 0,6.06036 0,6.06037 3.44098,0 c 1.89254,0 3.67547,-0.3794 3.96206,-0.84311 z m -5.40304,-3.21591 c 0,-2.04951 2.43248,-2.66826 3.52707,-0.89718 0.79798,1.29116 -1.42251,4.13885 -2.64038,3.38617 -0.48768,-0.3014 -0.88669,-1.42145 -0.88669,-2.48899 z m 0,-5.52431 c 0,-0.87084 0.53438,-1.40521 1.1875,-1.1875 1.85422,0.61807 2.16176,2.77083 0.39583,2.77083 -0.87083,0 -1.58333,-0.7125 -1.58333,-1.58333 z m 287.10212,-10.6866 c 7.02125,-4.69051 8.09656,-12.78193 2.47801,-18.64643 -2.92342,-3.0514 -3.15804,-4.73548 -1.04833,-7.52477 0.80751,-1.06762 1.4682,-3.01474 1.4682,-4.32692 0,-3.24031 -5.15418,-8.23195 -8.5,-8.23195 -3.24783,0 -8.5,4.95678 -8.5,8.02195 0,1.19668 0.73718,3.72928 1.63817,5.62798 1.60496,3.3822 1.5852,3.50749 -0.97476,6.17951 -4.25592,4.44222 -5.18725,8.43713 -3.00471,12.88865 2.03906,4.15886 7.43626,8.28191 10.8413,8.28191 1.21233,0 3.73328,-1.02147 5.60212,-2.26993 z m -8.60212,-10.23007 c 0,-2.66361 0.33486,-3 2.9863,-3 2.0858,0 3.09133,0.54532 3.33458,1.80841 0.62466,3.24362 -0.64153,4.84485 -3.56519,4.50856 -2.32477,-0.2674 -2.75569,-0.78609 -2.75569,-3.31697 z m 0.12413,-18.73124 c -0.83869,-1.3318 -0.70827,-2.11319 0.56528,-3.38674 2.99571,-2.99571 7.46512,0.91947 4.76443,4.1736 -1.55489,1.87353 -3.86955,1.53181 -5.32971,-0.78686 z m -115.3867,29.66585 c 6.25413,-3.39346 7.6285,-12.23984 2.76257,-17.78183 -3.30514,-3.76434 -3.6911,-6.15497 -1.4682,-9.09391 0.80751,-1.06762 1.4682,-3.01474 1.4682,-4.32692 0,-2.95982 -5.10612,-8.23195 -7.97274,-8.23195 -2.89781,0 -7.64749,2.56794 -8.40608,4.5448 -1.10124,2.8698 -0.66231,7.27122 0.87882,8.81234 2.08756,2.08756 1.87153,4.92974 -0.48663,6.40244 -1.09265,0.68237 -2.69869,2.92811 -3.56897,4.99055 -4.30975,10.21337 6.92595,20.0383 16.79303,14.68448 z m -9.28195,-8.5178 c -0.88943,-1.6619 -0.76408,-2.47082 0.6198,-4 0.95408,-1.05424 2.28485,-1.91681 2.95726,-1.91681 2.1308,0 3.7214,2.85209 3.06008,5.48701 -0.80568,3.21006 -5.0037,3.48191 -6.63714,0.4298 z m 1.05509,-20.40408 c -1.47876,-1.78179 -0.694,-4.31324 1.61136,-5.19789 2.36797,-0.90868 4.61574,2.37256 3.30414,4.8233 -1.20081,2.24373 -3.23557,2.39879 -4.9155,0.37459 z m -185.69039,27.10042 3.61315,-3.61315 31.78334,0.007 c 30.03368,0.006 31.94848,0.11596 34.78333,1.99341 3.83719,2.54127 5.97094,2.51291 9.68067,-0.12865 2.84964,-2.02912 3.88553,-2.11095 22.15437,-1.75 l 19.16496,0.37824 0.27555,-9 c 0.16149,-5.2746 0.88587,-10.30436 1.75,-12.15113 0.81095,-1.73312 1.47445,-3.84945 1.47445,-4.70295 0,-3.05641 -2.30858,-6.5311 -5.11031,-7.69161 -7.46424,-3.09179 -14.49013,4.44957 -10.54674,11.32053 0.91138,1.58798 1.65705,4.87577 1.65705,7.3062 l 0,4.41896 -14.87756,0 c -12.00454,0 -15.11795,-0.28967 -16.12244,-1.5 -1.59175,-1.91794 -7.0412,-1.93607 -9.55887,-0.0318 -2.7988,2.1169 -66.91905,2.2607 -68.14144,0.15281 -1.11057,-1.91508 -7.42305,-5.61275 -9.58953,-5.61727 -4.10779,-0.009 -9.4378,3.8583 -11.12279,8.0695 -3.11793,7.79249 1.48231,14.84269 10.23351,15.68357 4.55493,0.43767 5.13107,0.22457 8.4993,-3.14366 z m -10.82018,-8.00416 c 0,-3.82686 2.81999,-5.71757 5.11089,-3.42667 1.13515,1.13515 1.4415,2.47281 0.98388,4.2961 -0.54379,2.16664 -1.15783,2.59082 -3.37965,2.33464 -2.2552,-0.26003 -2.71512,-0.80278 -2.71512,-3.20407 z m 83,-0.60899 c 0,-1.83273 0.60174,-2.58545 2.25447,-2.82014 1.35228,-0.19202 2.49559,0.3082 2.85699,1.25 0.99567,2.59467 -0.39988,4.73919 -2.85699,4.39028 -1.65273,-0.23469 -2.25447,-0.98741 -2.25447,-2.82014 z m 41.12413,-19.23124 c -0.83869,-1.3318 -0.70827,-2.11319 0.56528,-3.38674 2.99571,-2.99571 7.46512,0.91947 4.76443,4.1736 -1.55489,1.87353 -3.86955,1.53181 -5.32971,-0.78686 z m 48.48782,26.7316 c 1.43657,-0.78076 3.17448,-2.77764 3.86202,-4.43751 1.09374,-2.64052 0.98594,-3.46562 -0.86195,-6.59756 -2.64584,-4.48437 -2.6823,-8.4816 -0.11576,-12.69112 1.09795,-1.80079 1.99795,-3.96124 2,-4.80099 0.002,-0.83975 3.05253,-4.55225 6.77884,-8.25 l 6.77509,-6.72318 14.72491,0 c 12.42213,0 14.7249,0.23458 14.7249,1.5 0,1.23333 1.77778,1.5 10,1.5 l 10,0 0,-8 0,-8 -9.89301,0 c -8.10019,0 -10.00305,0.28676 -10.50023,1.58238 -0.52628,1.37147 -2.80756,1.54364 -17.11576,1.29177 l -16.50855,-0.29059 -8.07281,8.70822 c -4.91879,5.30595 -8.84802,8.70822 -10.05697,8.70822 -6.83667,0 -11.24983,9.93572 -6.25456,14.08143 2.09403,1.73789 1.70295,7.59236 -0.7267,10.87863 -2.54396,3.44089 -1.99968,7.00258 1.6238,10.62606 2.71676,2.71676 5.76668,3.0067 9.61674,0.91424 z m -6.61195,-7.50036 c 0,-1.83273 0.60174,-2.58545 2.25447,-2.82014 1.35228,-0.19202 2.49559,0.3082 2.85699,1.25 0.99567,2.59467 -0.39988,4.73919 -2.85699,4.39028 -1.65273,-0.23469 -2.25447,-0.98741 -2.25447,-2.82014 z m -0.29826,-19.58751 c -0.41789,-2.92485 2.29276,-5.07691 4.29826,-3.41249 1.57486,1.30702 1.99628,4.17038 0.79115,5.37552 -1.41135,1.41135 -4.79368,0.10676 -5.08941,-1.96303 z m 62.29826,-21.41249 c 0,-1.83273 0.60174,-2.58545 2.25447,-2.82014 1.35228,-0.19202 2.49559,0.3082 2.85699,1.25 0.99567,2.59467 -0.39988,4.73919 -2.85699,4.39028 -1.65273,-0.23469 -2.25447,-0.98741 -2.25447,-2.82014 z m 74.5,0 c 0,-7.86667 -0.0417,-8 -2.5,-8 -2,0 -2.5,-0.5 -2.5,-2.5 0,-2 0.5,-2.5 2.5,-2.5 2.45833,0 2.5,-0.13333 2.5,-8 l 0,-8 -10,0 -10,0 0,8 c 0,7.33333 0.16667,8 2,8 1.46667,0 2,0.66667 2,2.5 0,1.83333 -0.53333,2.5 -2,2.5 -1.83333,0 -2,0.66667 -2,8 l 0,8 10,0 10,0 0,-8 z m -12.5,0 c 0,-1.83273 0.60174,-2.58545 2.25447,-2.82014 2.45711,-0.34891 3.85266,1.79561 2.85699,4.39028 -0.3614,0.9418 -1.50471,1.44202 -2.85699,1.25 -1.65273,-0.23469 -2.25447,-0.98741 -2.25447,-2.82014 z m 0,-21 c 0,-1.83273 0.60174,-2.58545 2.25447,-2.82014 2.45711,-0.34891 3.85266,1.79561 2.85699,4.39028 -0.3614,0.9418 -1.50471,1.44202 -2.85699,1.25 -1.65273,-0.23469 -2.25447,-0.98741 -2.25447,-2.82014 z m 70.1,5.6 c 3.90636,-3.90636 4.18251,-5.89855 1.4,-10.1 -2.95207,-4.45747 -2.81883,-16.45907 0.24722,-22.2684 2.24463,-4.25295 2.24582,-4.2801 0.32928,-7.5 -1.05792,-1.77738 -2.18292,-5.2566 -2.5,-7.7316 l -0.5765,-4.5 -14.52922,0 c -12.1476,0 -14.96944,-0.28686 -17.21482,-1.75 -3.41783,-2.22714 -4.86761,-2.19951 -8.9488,0.17059 -3.96276,2.30132 -15.80716,2.58175 -15.80716,0.37425 0,-0.97245 -2.46079,-1.29484 -9.88337,-1.29484 -11.01646,0 -11.08932,0.0526 -11.08932,8 0,7.94744 0.0729,8 11.08932,8 8.11855,0 9.88337,-0.26785 9.88337,-1.5 0,-2.08981 12.67061,-2.06371 15.44113,0.0318 2.49199,1.88485 7.62575,1.88485 10.11774,0 1.3503,-1.02131 4.57544,-1.47787 10.59597,-1.5 l 8.65485,-0.0318 -0.52447,3.91017 c -0.36021,2.68558 -0.0172,4.63436 1.09516,6.22251 2.51422,3.58956 2.26219,17.23496 -0.38038,20.59445 -2.90446,3.69242 -2.5654,7.86131 0.92308,11.34979 3.95573,3.95574 7.38429,3.81571 11.67692,-0.47692 z m -9.1,-4.99101 c 0,-2.96702 3.10339,-4.43418 5.11798,-2.41958 2.39307,2.39307 1.05192,5.02028 -2.36229,4.62756 -1.92434,-0.22134 -2.75569,-0.88746 -2.75569,-2.20798 z m 1,-31.60899 c 0,-1.83273 0.60174,-2.58545 2.25447,-2.82014 2.45711,-0.34891 3.85266,1.79561 2.85699,4.39028 -0.3614,0.9418 -1.50471,1.44202 -2.85699,1.25 -1.65273,-0.23469 -2.25447,-0.98741 -2.25447,-2.82014 z m -31.99716,-8.99105 c -0.85309,-2.68784 0.1346,-4.00895 2.99716,-4.00895 2.86256,0 3.85025,1.32111 2.99716,4.00895 -0.39634,1.24875 -1.51374,1.99105 -2.99716,1.99105 -1.48342,0 -2.60082,-0.7423 -2.99716,-1.99105 z m -30.00284,-1.00895 c 0,-1.83273 0.60174,-2.58545 2.25447,-2.82014 2.45711,-0.34891 3.85266,1.79561 2.85699,4.39028 -0.3614,0.9418 -1.50471,1.44202 -2.85699,1.25 -1.65273,-0.23469 -2.25447,-0.98741 -2.25447,-2.82014 z m -116.72583,47.99626 c 3.00418,-1.83164 5.04769,-1.99626 24.78138,-1.99626 18.19504,0 21.59586,0.231 22.08282,1.5 0.45798,1.19346 2.59732,1.5 10.46862,1.5 l 9.89301,0 0,-8 0,-8 -9.89301,0 c -7.8713,0 -10.01064,0.30654 -10.46862,1.5 -0.84491,2.2018 -44.1651,2.17254 -47.0795,-0.0318 -1.06762,-0.80751 -3.11911,-1.4682 -4.55887,-1.4682 -1.43976,0 -3.49125,0.66069 -4.55887,1.4682 -1.58411,1.19815 -6.4473,1.46819 -26.44113,1.46819 -19.99383,0 -24.85702,-0.27004 -26.44113,-1.46819 -2.48499,-1.87955 -6.63275,-1.87955 -9.11774,0 -1.06762,0.8075 -4.07863,1.4825 -6.69113,1.5 l -4.75,0.0318 0.007,-45.25 c 0.006,-43.47074 0.0847,-45.36796 1.99341,-48.25 1.09275,-1.65 1.98979,-3.80333 1.99341,-4.78518 0.0167,-4.52236 -6.58038,-9.61546 -10.74341,-8.29417 -5.59187,1.77479 -8.12093,8.7235 -4.7818,13.13822 1.24513,1.64622 1.47303,9.65153 1.5,52.69113 l 0.0314,50.75 9.25,0.0222 c 7.63892,0.0184 9.68543,0.36283 11.75,1.97776 3.18914,2.49458 5.67811,2.49363 9.77417,-0.004 3.02715,-1.84565 5.02643,-1.99458 26.5,-1.97402 21.51166,0.0209 23.41034,0.16686 25.72583,1.97806 3.18914,2.49458 5.67811,2.49363 9.77417,-0.004 z m 54.72583,-6.99626 c 0,-1.83273 0.60174,-2.58545 2.25447,-2.82014 1.35228,-0.19202 2.49559,0.3082 2.85699,1.25 0.99567,2.59467 -0.39988,4.73919 -2.85699,4.39028 -1.65273,-0.23469 -2.25447,-0.98741 -2.25447,-2.82014 z m -62,0 c 0,-1.83273 0.60174,-2.58545 2.25447,-2.82014 1.35228,-0.19202 2.49559,0.3082 2.85699,1.25 0.99567,2.59467 -0.39988,4.73919 -2.85699,4.39028 -1.65273,-0.23469 -2.25447,-0.98741 -2.25447,-2.82014 z m -62,0 c 0,-1.83273 0.60174,-2.58545 2.25447,-2.82014 1.35228,-0.19202 2.49559,0.3082 2.85699,1.25 0.99567,2.59467 -0.39988,4.73919 -2.85699,4.39028 -1.65273,-0.23469 -2.25447,-0.98741 -2.25447,-2.82014 z m -21,-103 c 0,-1.83273 0.60174,-2.58545 2.25447,-2.82014 2.45711,-0.34891 3.85266,1.79561 2.85699,4.39028 -0.3614,0.9418 -1.50471,1.44202 -2.85699,1.25 -1.65273,-0.23469 -2.25447,-0.98741 -2.25447,-2.82014 z M 148.178,431.47115 c 2.71631,-2.02516 3.62158,-2.09111 21.68577,-1.57976 15.82028,0.44783 18.93984,0.30246 19.40288,-0.90418 0.30345,-0.7908 0.54427,-25.60315 0.53515,-55.13857 -0.009,-29.53541 -0.004,-56.96325 0.0125,-60.95075 l 0.0291,-7.25 6.71533,0 6.71533,0 13.78467,9.14282 13.78467,9.14282 -0.0318,5.60718 c -0.0189,3.33662 -0.62634,6.39322 -1.5,7.54831 -1.9918,2.63339 -1.851,7.86893 0.2818,10.4785 0.9625,1.17766 3.41662,2.408 5.45361,2.7341 3.202,0.5126 4.1162,0.1803 6.75,-2.45349 3.54955,-3.54956 3.88123,-6.8692 1.04639,-10.47311 -1.25997,-1.6018 -2,-4.05678 -2,-6.63486 l 0,-4.09227 9.75,0.0318 c 6.98434,0.0228 10.30062,0.44827 11.69113,1.5 1.06762,0.80751 3.34411,1.4682 5.05887,1.4682 1.71476,0 3.99125,-0.66069 5.05887,-1.4682 1.61307,-1.22006 7.48608,-1.47357 34.75015,-1.5 20.96562,-0.0203 32.59246,0.3186 32.2091,0.93888 -0.934,1.51124 3.25572,2.1495 11.98524,1.82582 l 7.99664,-0.2965 0.29206,-7.75 0.29207,-7.75 -9.61349,0 c -7.363,0 -9.97751,0.36401 -11.16845,1.55495 -2.3199,2.3199 -64.13365,1.44073 -67.80429,-0.96437 -3.18296,-2.08556 -4.6343,-2.00861 -9.44903,0.50096 -3.48105,1.81443 -5.37319,2.04397 -14.28079,1.73243 l -10.26808,-0.35912 -13,-8.55081 c -7.15,-4.70295 -13.75536,-9.30754 -14.67857,-10.23243 -1.4124,-1.41495 -3.89141,-1.68161 -15.63337,-1.68161 -13.62632,0 -13.96899,0.053 -14.55777,2.25 -0.33164,1.2375 -0.60913,29.1375 -0.61664,62 l -0.0136,59.75 -14.57143,0 c -11.61905,0 -14.87535,-0.30392 -16.07143,-1.5 -0.825,-0.825 -3.06331,-1.5 -4.97402,-1.5 -8.56406,0 -11.80091,11.66411 -4.3116,15.53699 3.79756,1.96379 5.88783,1.80273 9.26312,-0.71373 z m -7.83464,-6.82326 c 0,-1.83273 0.60174,-2.58545 2.25447,-2.82014 1.35228,-0.19202 2.49559,0.3082 2.85699,1.25 0.99567,2.59467 -0.39988,4.73919 -2.85699,4.39028 -1.65273,-0.23469 -2.25447,-0.98741 -2.25447,-2.82014 z m 93.12413,-81.23124 c -1.3598,-2.1593 1.38333,-5.36361 3.79833,-4.43689 1.58602,0.60861 2.1841,4.72823 0.8763,6.03603 -1.10671,1.10672 -3.48243,0.29401 -4.67463,-1.59914 z m 113.87587,-21.76876 c 0,-1.83273 0.60174,-2.58545 2.25447,-2.82014 2.45711,-0.34891 3.85266,1.79561 2.85699,4.39028 -0.3614,0.9418 -1.50471,1.44202 -2.85699,1.25 -1.65273,-0.23469 -2.25447,-0.98741 -2.25447,-2.82014 z m -83,0 c 0,-1.83273 0.60174,-2.58545 2.25447,-2.82014 2.45711,-0.34891 3.85266,1.79561 2.85699,4.39028 -0.3614,0.9418 -1.50471,1.44202 -2.85699,1.25 -1.65273,-0.23469 -2.25447,-0.98741 -2.25447,-2.82014 z m -33.38486,89.14883 c 2.25898,-1.75346 5.17936,-1.84195 55.32603,-1.67648 39.56636,0.13056 53.04025,0.47192 53.33334,1.35117 0.26565,0.79696 3.60473,1.17648 10.35089,1.17648 l 9.95873,0 -0.29207,-7.75 -0.29206,-7.75 -9.07039,-0.31889 c -7.29513,-0.25647 -9.32522,-0.0118 -10.37244,1.25 -1.15269,1.38891 -7.35495,1.56889 -54.06531,1.56889 -44.85901,0 -53.19234,-0.22379 -55.62755,-1.49384 -1.57537,-0.82161 -3.85172,-1.49661 -5.05855,-1.5 -3.13423,-0.009 -7.20296,3.94694 -7.92382,7.70378 -0.51499,2.68395 -0.11777,3.70807 2.42415,6.25 3.54952,3.54951 7.70506,3.98638 11.30905,1.18889 z m 117.46665,-3.75582 c -2.30055,-0.8828 -2.00589,-5.12363 0.40926,-5.89017 1.09508,-0.34756 2.44508,-0.35133 3,-0.008 1.43267,0.88544 1.25302,5.24038 -0.24105,5.84325 -0.6875,0.27741 -1.3257,0.53991 -1.41821,0.58333 -0.0925,0.0434 -0.88002,-0.19419 -1.75,-0.52804 z m -125.38589,-2.52381 c -0.34785,-2.98981 2.22494,-4.59475 4.43085,-2.76401 1.71542,1.42368 1.78906,4.55653 0.12325,5.24404 -2.5011,1.03224 -4.25669,0.0762 -4.5541,-2.48003 z m 28.36297,-14.3374 c 1.49802,-1.13304 5.30816,-1.47545 16.69113,-1.5 l 14.75,-0.0318 0,-10.5 0,-10.5 28.03138,0 c 23.9943,0 28.11429,0.21603 28.60699,1.5 0.45798,1.19346 2.59732,1.5 10.46862,1.5 l 9.89301,0 0,-8 0,-8 -9.89301,0 c -7.8713,0 -10.01064,0.30654 -10.46862,1.5 -0.49581,1.29207 -5.2238,1.5 -34.10699,1.5 l -33.53138,0 0,10.5 0,10.5 -9.09227,0 c -7.57808,0 -9.51571,-0.33307 -11.63486,-2 -1.39842,-1.1 -3.54621,-2 -4.77287,-2 -1.22666,0 -3.37445,0.9 -4.77287,2 -3.29218,2.58963 -6.90603,2.53228 -11.62652,-0.18448 -3.40735,-1.96103 -4.12293,-2.04891 -6.99528,-0.85915 -8.96751,3.71446 -6.83712,16.04363 2.77223,16.04363 2.22676,0 4.40754,-0.63859 5.12244,-1.5 1.58828,-1.91376 7.89426,-1.89455 10.44113,0.0318 1.06762,0.80751 3.34411,1.4682 5.05887,1.4682 1.71476,0 3.99125,-0.66069 5.05887,-1.4682 z m -7.45368,-4.90505 c -1.65551,-1.99477 -0.26591,-4.62675 2.44278,-4.62675 2.81707,0 3.79826,1.33377 2.94919,4.00895 -0.72706,2.29076 -3.71903,2.63357 -5.39197,0.6178 z m -20.60519,-1.62675 c 0,-1.83273 0.60174,-2.58545 2.25447,-2.82014 1.35228,-0.19202 2.49559,0.3082 2.85699,1.25 0.99567,2.59467 -0.39988,4.73919 -2.85699,4.39028 -1.65273,-0.23469 -2.25447,-0.98741 -2.25447,-2.82014 z m 124,-21 c 0,-1.83273 0.60174,-2.58545 2.25447,-2.82014 1.35228,-0.19202 2.49559,0.3082 2.85699,1.25 0.99567,2.59467 -0.39988,4.73919 -2.85699,4.39028 -1.65273,-0.23469 -2.25447,-0.98741 -2.25447,-2.82014 z m 205.60212,9.7174 c 2.1128,-1.41931 3.9196,-3.78308 4.77736,-6.25 1.23967,-3.56532 1.18854,-4.37204 -0.50444,-7.9601 -2.21565,-4.69579 -7.32445,-7.71502 -11.99866,-7.09104 -2.62695,0.35068 -3.7966,-0.26873 -7.35605,-3.89555 -2.32784,-2.3719 -4.18471,-4.58438 -4.12638,-4.91662 0.73189,-4.16884 -3.36478,-8.60409 -7.94729,-8.60409 -3.74632,0 -8.94666,4.94072 -8.94666,8.5 0,3.10706 5.2015,8.5 8.19826,8.5 1.45562,0 3.84904,1.4882 6.0988,3.79216 3.09296,3.16748 3.70294,4.49112 3.70294,8.03519 0,9.98194 9.90757,15.39491 18.10212,9.89005 z m -9.51238,-8.34415 c -0.78098,-2.0352 1.07167,-4.37325 3.46532,-4.37325 1.90564,0 3.51246,3.27273 2.45047,4.99105 -0.99452,1.60918 -5.23099,1.16676 -5.91579,-0.6178 z m -20.4244,-21.2488 c -0.43039,-3.02874 1.07306,-4.50095 3.734,-3.6564 1.3489,0.42813 2.10066,1.50746 2.10066,3.016 0,4.06081 -5.26648,4.63884 -5.83466,0.6404 z m -395.66534,30.73832 c 1.1,-0.59203 3.00318,-2.26154 4.22928,-3.71003 l 2.22928,-2.63361 4.40849,2.40824 c 3.97382,2.17079 4.72001,2.27921 7.56788,1.09958 3.62175,-1.50017 6.48163,-6.23109 5.68515,-9.40455 -1.45291,-5.78885 -8.62921,-8.59546 -13.17895,-5.1542 -2.79728,2.11576 -4.99417,1.86289 -6.72172,-0.77369 -0.83084,-1.26801 -3.32481,-2.90422 -5.54215,-3.63601 -6.11193,-2.01712 -10.935,0.15065 -14.04989,6.31483 -2.20155,4.35674 -2.2711,4.9621 -0.96449,8.39509 2.47966,6.5151 10.74477,10.10419 16.33712,7.09435 z m -8.1106,-9.44741 c -0.8628,-3.43768 1.8375,-6.39194 4.37936,-4.79123 2.20478,1.38845 2.74132,4.05633 1.19137,5.92391 -1.94838,2.34765 -4.84504,1.75868 -5.57073,-1.13268 z m 21.1106,-1.41536 c 0,-1.83273 0.60174,-2.58545 2.25447,-2.82014 1.35228,-0.19202 2.49559,0.3082 2.85699,1.25 0.99567,2.59467 -0.39988,4.73919 -2.85699,4.39028 -1.65273,-0.23469 -2.25447,-0.98741 -2.25447,-2.82014 z m 90.27417,6.99626 c 2.85978,-1.74361 5.04299,-1.99626 17.25,-1.99626 l 13.97583,0 0,-10 0,-10 25.25,0.0318 c 20.6171,0.026 25.60616,0.30119 27.19113,1.5 2.68074,2.02761 6.49911,1.82574 10.05887,-0.5318 3.79446,-2.51297 14.23362,-2.85776 15.13837,-0.5 0.45798,1.19346 2.59732,1.5 10.46862,1.5 l 9.89301,0 0,-8 0,-8 -9.89301,0 c -7.8713,0 -10.01064,0.30654 -10.46862,1.5 -0.79406,2.06929 -13.3344,2.04448 -16.0795,-0.0318 -1.06762,-0.80751 -3.11911,-1.4682 -4.55887,-1.4682 -1.43976,0 -3.49125,0.66069 -4.55887,1.4682 -1.60513,1.21405 -7.17728,1.4737 -32.19113,1.5 l -30.25,0.0318 0,10.5 0,10.5 -9.75,-0.0318 c -6.98434,-0.0228 -10.30062,-0.44827 -11.69113,-1.5 -3.15199,-2.38405 -7.37446,-1.80645 -10.63579,1.45488 -1.6077,1.60769 -2.92308,3.65504 -2.92308,4.54966 0,2.87792 2.77515,7.10378 5.47206,8.33257 3.53488,1.61061 4.48545,1.51797 8.30211,-0.80905 z m -7.27417,-6.99626 c 0,-1.83273 0.60174,-2.58545 2.25447,-2.82014 1.35228,-0.19202 2.49559,0.3082 2.85699,1.25 0.99567,2.59467 -0.39988,4.73919 -2.85699,4.39028 -1.65273,-0.23469 -2.25447,-0.98741 -2.25447,-2.82014 z M 348.42515,345.0409 c -2.00866,-0.77079 -2.06866,-4.9922 -0.0818,-5.75464 2.3965,-0.91962 4.5,0.39013 4.5,2.80195 0,3.36733 -1.21744,4.18094 -4.41821,2.95269 z m -31,0 c -2.00866,-0.77079 -2.06866,-4.9922 -0.0818,-5.75464 2.3965,-0.91962 4.5,0.39013 4.5,2.80195 0,3.36733 -1.21744,4.18094 -4.41821,2.95269 z m 104.41821,24.10699 c 0,-1.29078 3.27778,-1.5 23.5,-1.5 l 23.5,0 0,-61.96063 0,-61.96064 -20.25,-0.31279 c -14.83475,-0.22915 -21.10846,-0.69542 -23.46017,-1.74357 -2.84078,-1.26614 -3.60767,-1.24123 -6.66455,0.2165 -3.9425,1.88005 -5.09291,4.45492 -4.17541,9.34558 1.08909,5.80539 8.0405,8.17747 12.85835,4.38775 2.35993,-1.85632 3.78782,-2.00431 16.88486,-1.75 l 14.30692,0.2778 0,51.5 0,51.5 -18.25,0.27256 c -15.79507,0.23589 -18.25,0.0677 -18.25,-1.25 0,-1.26191 -1.71193,-1.52256 -10,-1.52256 l -10,0 0,8 0,8 10,0 c 8.22222,0 10,-0.26667 10,-1.5 z m -12.5,-6.5 c 0,-1.83273 0.60174,-2.58545 2.25447,-2.82014 2.45711,-0.34891 3.85266,1.79561 2.85699,4.39028 -0.3614,0.9418 -1.50471,1.44202 -2.85699,1.25 -1.65273,-0.23469 -2.25447,-0.98741 -2.25447,-2.82014 z m 10.12413,-112.23124 c -0.83869,-1.3318 -0.70827,-2.11319 0.56528,-3.38674 2.99571,-2.99571 7.46512,0.91947 4.76443,4.1736 -1.55489,1.87353 -3.86955,1.53181 -5.32971,-0.78686 z m 29.45279,97.30816 c 3.42461,-3.4246 3.7246,-6.78823 0.92308,-10.34979 -2.60619,-3.31324 -2.52979,-6.90646 0.25,-11.75696 l 2.25,-3.92607 -2.25278,-4.27205 c -2.80501,-5.31928 -2.81615,-7.20835 -0.073,-12.38766 1.93585,-3.65507 2.03448,-4.46634 0.88146,-7.25 -0.71408,-1.72391 -1.69373,-3.13439 -2.177,-3.13439 -0.48327,0 -0.87868,-6.75 -0.87868,-15 l 0,-15 -9.25,-0.0318 c -6.54433,-0.0225 -9.81779,-0.46126 -11.19113,-1.5 -3.04993,-2.30685 -8.27527,-1.84271 -11.10432,0.98635 -3.44058,3.44057 -3.2611,7.89274 0.46853,11.62237 3.39037,3.39038 6.55237,3.68002 10.07692,0.92308 1.5713,-1.22909 4.07878,-1.96379 6.75,-1.97776 l 4.25,-0.0222 -0.0318,9.75 c -0.0228,6.98434 -0.44827,10.30062 -1.5,11.69113 -0.80751,1.06762 -1.4682,3.34411 -1.4682,5.05887 0,1.71476 0.66069,3.99125 1.4682,5.05887 1.62598,2.14974 2.04176,8.00792 0.63027,8.88027 -0.49585,0.30645 -1.35878,1.86882 -1.91763,3.47194 -0.81256,2.33092 -0.61821,3.71894 0.97028,6.92957 1.13505,2.29413 1.84977,5.43869 1.66763,7.33708 l -0.31875,3.32227 -7.75,0.29206 c -6.51642,0.24558 -7.75,0.0409 -7.75,-1.28621 0,-1.34935 -1.41419,-1.53676 -9.75,-1.29206 l -9.75,0.28621 -0.29206,7.75 -0.29207,7.75 9.93508,0 c 7.35343,0 10.06794,-0.34624 10.44638,-1.33245 0.88131,-2.29665 11.64523,-2.07934 15.20267,0.30693 4.29434,2.88056 8.09334,2.58603 11.57692,-0.89756 z m -8.45279,-4.30816 c -1.3598,-2.1593 1.38333,-5.36361 3.79833,-4.43689 1.58602,0.60861 2.1841,4.72823 0.8763,6.03603 -1.10671,1.10672 -3.48243,0.29401 -4.67463,-1.59914 z m -30.04234,1.62425 c -2.30055,-0.8828 -2.00589,-5.12363 0.40926,-5.89017 2.65907,-0.84396 4.00895,0.12899 4.00895,2.88951 0,3.41608 -1.20427,4.23397 -4.41821,3.00066 z m 29.91821,-23.39301 c 0,-1.83273 0.60174,-2.58545 2.25447,-2.82014 2.45711,-0.34891 3.85266,1.79561 2.85699,4.39028 -0.3614,0.9418 -1.50471,1.44202 -2.85699,1.25 -1.65273,-0.23469 -2.25447,-0.98741 -2.25447,-2.82014 z m 0,-21 c 0,-1.83273 0.60174,-2.58545 2.25447,-2.82014 2.45711,-0.34891 3.85266,1.79561 2.85699,4.39028 -0.3614,0.9418 -1.50471,1.44202 -2.85699,1.25 -1.65273,-0.23469 -2.25447,-0.98741 -2.25447,-2.82014 z m -21.00553,-29.00895 c -1.06198,-1.71832 0.54484,-4.99105 2.45047,-4.99105 2.34181,0 4.44228,2.54855 3.69832,4.48727 -0.65013,1.6942 -5.18351,2.06563 -6.14879,0.50378 z m 135.50553,60.2574 c 7.19753,-3.59557 8.99178,-13.16577 3.49829,-18.65925 -4.72091,-4.72091 -11.69679,-4.54328 -17.3838,0.44265 -4.04706,3.54815 -5.34812,3.64442 -10.73009,0.79394 -3.6761,-1.94699 -4.45538,-2.03903 -7.29717,-0.86192 -3.641,1.50815 -6.5056,6.23307 -5.70731,9.41373 1.45291,5.78885 8.62921,8.59546 13.17895,5.1542 2.97602,-2.25094 8.69986,-1.94841 10.25517,0.54203 1.25933,2.0165 6.81852,4.92775 9.40384,4.92462 0.70517,-8.6e-4 2.85712,-0.78836 4.78212,-1.75 z m -7.5,-10.24845 c 0,-1.83273 0.60174,-2.58545 2.25447,-2.82014 1.35228,-0.19202 2.49559,0.3082 2.85699,1.25 0.99567,2.59467 -0.39988,4.73919 -2.85699,4.39028 -1.65273,-0.23469 -2.25447,-0.98741 -2.25447,-2.82014 z m -24,0 c 0,-1.83273 0.60174,-2.58545 2.25447,-2.82014 1.35228,-0.19202 2.49559,0.3082 2.85699,1.25 0.99567,2.59467 -0.39988,4.73919 -2.85699,4.39028 -1.65273,-0.23469 -2.25447,-0.98741 -2.25447,-2.82014 z m -102.16667,7.33333 c 0.36667,-0.36666 0.66667,-3.96666 0.66667,-8 0,-7.15555 -0.0606,-7.33333 -2.5,-7.33333 -2.45508,0 -2.5,-0.14152 -2.5,-7.87716 l 0,-7.87717 4.42397,0.49865 c 3.7874,0.4269 4.79464,0.12798 7,-2.07738 3.5652,-3.56521 3.43529,-7.96153 -0.34705,-11.74386 -3.46643,-3.46644 -6.13321,-3.66944 -10.74678,-0.8181 -2.29564,1.41878 -4.53455,1.97322 -6.86804,1.7008 l -3.4621,-0.40418 0,14.2992 0,14.2992 -2.5,0 c -2.45833,0 -2.5,0.13333 -2.5,8 l 0,8 9.33333,0 c 5.13334,0 9.63334,-0.3 10,-0.66667 z m -11.83333,-7.33333 c 0,-1.83273 0.60174,-2.58545 2.25447,-2.82014 2.45711,-0.34891 3.85266,1.79561 2.85699,4.39028 -0.3614,0.9418 -1.50471,1.44202 -2.85699,1.25 -1.65273,-0.23469 -2.25447,-0.98741 -2.25447,-2.82014 z m 10.13837,-29.5 c -0.9446,-2.46159 0.41434,-4.5 3,-4.5 2.85387,0 4.10432,2.40018 2.35106,4.51273 -1.59353,1.9201 -4.61212,1.91291 -5.35106,-0.0127 z m 109.86163,16.34527 c 2.91859,-1.59635 4.5,-3.90698 4.5,-6.57504 0,-1.36256 1.61343,-4.0266 3.84544,-6.34945 3.38435,-3.52211 4.28946,-3.95302 7.54871,-3.59385 4.73788,0.52211 9.42725,-2.46908 11.95529,-7.62587 2.32039,-4.73322 1.60133,-7.95029 -2.74944,-12.30106 -4.34865,-4.34865 -7.57494,-5.07279 -12.24972,-2.74944 -4.96193,2.46607 -7.61353,6.31255 -7.7438,11.23333 -0.0863,3.26079 -0.85498,4.78875 -4.05942,8.06929 -2.31239,2.36729 -4.89012,4.04682 -6.21105,4.04682 -2.42941,0 -5.93817,3.17117 -6.91536,6.25 -0.90733,2.85876 1.50463,7.66 4.67054,9.29716 3.31736,1.71547 4.71466,1.77169 7.40881,0.29811 z m -6,-7.84527 c 0,-1.83273 0.60174,-2.58545 2.25447,-2.82014 2.45711,-0.34891 3.85266,1.79561 2.85699,4.39028 -0.3614,0.9418 -1.50471,1.44202 -2.85699,1.25 -1.65273,-0.23469 -2.25447,-0.98741 -2.25447,-2.82014 z m 20.12414,-19.23124 c -0.8387,-1.3318 -0.70827,-2.11319 0.56527,-3.38674 2.99571,-2.99571 7.46512,0.91947 4.76443,4.1736 -1.55489,1.87353 -3.86954,1.53181 -5.3297,-0.78686 z m -200.88271,16.69791 c 6.08639,-2.55913 7.20179,-9.65377 2.18184,-13.87778 -3.71264,-3.12398 -6.17659,-3.25676 -9.99394,-0.53857 -2.81071,2.0014 -3.88816,2.04316 -45.15437,1.75 l -42.27496,-0.30032 -13.25,-8.94892 -13.25,-8.94892 0.0318,-11.05108 c 0.0234,-8.12914 0.42,-11.56432 1.5,-12.99221 5.86889,-7.75936 -5.43414,-16.86436 -13.06927,-10.52777 -2.32259,1.92758 -2.91035,7.6365 -1.07465,10.43813 1.28938,1.96784 1.61212,5.27017 1.61212,16.49559 0,9.8859 0.33895,14.03518 1.14652,14.03518 0.63059,0 7.76466,4.95 15.85348,11 l 14.70695,11 45.58751,0 c 25.99359,0 45.82699,0.38749 46.14468,0.90153 1.27023,2.05527 6.17424,2.88039 9.30229,1.56514 z m -5.24143,-7.45297 c 0,-1.62706 0.6415,-2.60985 1.85622,-2.84379 2.56067,-0.49314 3.97673,1.2057 3.15723,3.78772 -1.00232,3.15802 -5.01345,2.4028 -5.01345,-0.94393 z M 212.2001,240.13516 c -0.75692,-1.9725 1.37106,-4.48727 3.79709,-4.48727 2.1347,0 3.35985,2.21898 2.48454,4.5 -0.74967,1.95361 -5.53079,1.94391 -6.28163,-0.0127 z m 132.72018,35.58965 c 4.84834,-4.84833 3.37612,-11.67754 -2.99631,-13.89897 -2.36639,-0.82493 -3.69843,-0.64737 -6.72707,0.89672 -4.51718,2.30299 -9.63607,2.49475 -11.35354,0.42533 -0.70213,-0.84602 -2.88207,-1.5 -5,-1.5 -2.11793,0 -4.29787,0.65398 -5,1.5 -1.58828,1.91376 -7.89426,1.89455 -10.44113,-0.0318 -1.06762,-0.80751 -3.34411,-1.4682 -5.05887,-1.4682 -1.71476,0 -3.99125,0.66069 -5.05887,1.4682 -1.49802,1.13304 -5.30816,1.47545 -16.69113,1.5 l -14.75,0.0318 0,-8.97583 c 0,-7.16192 0.3974,-9.62931 1.96648,-12.20945 3.58009,-5.88699 -0.25922,-12.81472 -7.10184,-12.81472 -6.9787,0 -10.5644,6.45395 -6.97017,12.54571 1.8694,3.1684 2.10553,5.13225 2.10553,17.51145 l 0,13.94284 19.25,0.007 c 17.52772,0.006 19.51841,0.18435 22.25,1.99341 3.76383,2.49269 6.31328,2.49269 9.5,0 3.26532,-2.55417 6.55739,-2.5048 11.61561,0.17421 3.65507,1.93585 4.46634,2.03448 7.25,0.88146 1.72391,-0.71448 3.13439,-1.69413 3.13439,-2.1774 0,-1.64448 6.93956,-0.88606 10.22583,1.11758 4.43786,2.70576 6.41004,2.52171 9.85109,-0.91934 z m -7.57692,-6.07692 c 0,-1.83273 0.60174,-2.58545 2.25447,-2.82014 1.35228,-0.19202 2.49559,0.3082 2.85699,1.25 0.99567,2.59467 -0.39988,4.73919 -2.85699,4.39028 -1.65273,-0.23469 -2.25447,-0.98741 -2.25447,-2.82014 z m -21,0 c 0,-1.83273 0.60174,-2.58545 2.25447,-2.82014 1.35228,-0.19202 2.49559,0.3082 2.85699,1.25 0.99567,2.59467 -0.39988,4.73919 -2.85699,4.39028 -1.65273,-0.23469 -2.25447,-0.98741 -2.25447,-2.82014 z m -21,0 c 0,-1.83273 0.60174,-2.58545 2.25447,-2.82014 1.35228,-0.19202 2.49559,0.3082 2.85699,1.25 0.99567,2.59467 -0.39988,4.73919 -2.85699,4.39028 -1.65273,-0.23469 -2.25447,-0.98741 -2.25447,-2.82014 z m -41,-31 c 0,-1.83273 0.60174,-2.58545 2.25447,-2.82014 1.35228,-0.19202 2.49559,0.3082 2.85699,1.25 0.99567,2.59467 -0.39988,4.73919 -2.85699,4.39028 -1.65273,-0.23469 -2.25447,-0.98741 -2.25447,-2.82014 z m 173.06144,-6.09941 c 0.37371,-0.60467 0.36916,-4.65666 -0.0101,-9.00441 -0.61797,-7.08423 -0.47473,-8.17813 1.37954,-10.53545 4.48554,-5.70242 0.79938,-13.36073 -6.43088,-13.36073 -6.71421,0 -10.88996,7.45793 -7.0318,12.55887 1.50235,1.98629 2.13525,10.43997 0.7818,10.44257 -10.12057,0.0194 -111.12297,0.0402 -112,0.023 -0.93971,-0.0184 -1.25,-3.52261 -1.25,-14.11672 0,-12.57808 0.2149,-14.36547 2,-16.63486 2.80152,-3.56156 2.50153,-6.92519 -0.92308,-10.34979 -3.72963,-3.72963 -8.1818,-3.90911 -11.62237,-0.46853 -2.82906,2.82905 -3.2932,8.05439 -0.98635,11.10432 1.1731,1.55098 1.47459,5.9107 1.5,21.69113 l 0.0318,19.75001 66.94098,0 c 47.58379,0 67.13747,-0.31791 67.62046,-1.09941 z m -8.2047,-23.41332 c -0.73864,-1.92488 1.35062,-4.48727 3.65872,-4.48727 2.01453,0 3.20026,2.27426 2.34617,4.5 -0.74935,1.95276 -5.25433,1.94321 -6.00489,-0.0127 z M 295.85393,189.16062 c -1.47876,-1.78179 -0.694,-4.31324 1.61136,-5.19789 2.36797,-0.90868 4.61574,2.37256 3.30414,4.8233 -1.20081,2.24373 -3.23557,2.39879 -4.9155,0.37459 z"
       id="path3052"
       inkscape:connector-curvature="0" />
  </g>
</svg>
